# xmcd
#
# Track frame offsets:
#	150
#	12553
#	28545
#	44838
#	58317
#	72780
#	89348
#	104997
#	120345
#	136068
#
# Disc length: 2046 seconds
#
# Revision: 0
# Processed by: cddbd v1.5.2PL0 Copyright (c) Steve Scherf et al.
# Submitted via: dBpowerAMP V4.0
#
DISCID=9007fc0a
DTITLE=Blues - Mixed Blues
DYEAR=2009
DGENRE=Blues
TTITLE0=blues
TTITLE1=blues
TTITLE2=blues
TTITLE3=blues
TTITLE4=blues
TTITLE5=blues
TTITLE6=blues
TTITLE7=blues
TTITLE8=blues
TTITLE9=blues
EXTD=Mixed blues
EXTT0=
EXTT1=
EXTT2=
EXTT3=
EXTT4=
EXTT5=
EXTT6=
EXTT7=
EXTT8=
EXTT9=
PLAYORDER=
